<svg width="10" height="10" viewBox="0 0 19 19" xmlns="http://www.w3.org/2000/svg"><path d="M13.07 8.143c0-1.377-.488-2.554-1.466-3.533-.98-.978-2.156-1.467-3.533-1.467-1.375 0-2.553.49-3.53 1.467-.98.98-1.47 2.156-1.47 3.533 0 1.376.49 2.554 1.47 3.532.977.98 2.155 1.468 3.53 1.468 1.378 0 2.555-.49 3.534-1.468.978-.978 1.467-2.156 1.467-3.532zm5.716 9.286c0 .385-.142.72-.424 1.003-.283.283-.618.424-1.005.424-.402 0-.736-.14-1.004-.424l-3.828-3.817C11.193 15.54 9.708 16 8.07 16c-1.063 0-2.08-.206-3.05-.62-.972-.412-1.81-.97-2.512-1.674-.703-.703-1.26-1.54-1.674-2.51-.413-.972-.62-1.99-.62-3.053 0-1.064.207-2.082.62-3.053.413-.97.97-1.808 1.674-2.51.703-.704 1.54-1.262 2.51-1.675.972-.413 1.99-.62 3.053-.62 1.065 0 2.083.207 3.054.62.97.413 1.808.97 2.51 1.674.704.702 1.262 1.54 1.675 2.51.412.97.62 1.99.62 3.053 0 1.637-.463 3.12-1.385 4.453l3.828 3.828c.275.275.413.61.413 1.005z" fill="#515151"/></svg>