<svg width="40" height="40" viewBox="0 0 40 40" fill="none" xmlns="http://www.w3.org/2000/svg">
    <mask id="mask0_1991_2055" style="mask-type:alpha" maskUnits="userSpaceOnUse" x="0" y="0" width="40" height="40">
        <rect width="40" height="40" fill="#D9D9D9"/>
    </mask>
    <g mask="url(#mask0_1991_2055)">
        <mask id="mask1_1991_2055" style="mask-type:alpha" maskUnits="userSpaceOnUse" x="9" y="5" width="22" height="30">
            <path d="M22.6364 5H11.0455C9.92045 5 9 5.92045 9 7.04545V32.9545C9 34.0795 9.92045 35 11.0455 35H28.7727C29.8977 35 30.8182 34.0795 30.8182 32.9545V13.1818L22.6364 5Z" fill="white"/>
        </mask>
        <g mask="url(#mask1_1991_2055)">
            <path d="M22.6364 5H11.0455C9.92045 5 9 5.92045 9 7.04545V32.9545C9 34.0795 9.92045 35 11.0455 35H28.7727C29.8977 35 30.8182 34.0795 30.8182 32.9545V13.1818L26.0455 9.77273L22.6364 5Z" fill="#0F9D58"/>
        </g>
        <mask id="mask2_1991_2055" style="mask-type:alpha" maskUnits="userSpaceOnUse" x="9" y="5" width="22" height="30">
            <path d="M22.6364 5H11.0455C9.92045 5 9 5.92045 9 7.04545V32.9545C9 34.0795 9.92045 35 11.0455 35H28.7727C29.8977 35 30.8182 34.0795 30.8182 32.9545V13.1818L22.6364 5Z" fill="white"/>
        </mask>
        <g mask="url(#mask2_1991_2055)">
            <path d="M14.4546 19.6591V29.5454H25.3637V19.6591H14.4546ZM19.2273 28.1818H15.8182V26.4772H19.2273V28.1818ZM19.2273 25.4545H15.8182V23.75H19.2273V25.4545ZM19.2273 22.7272H15.8182V21.0227H19.2273V22.7272ZM24 28.1818H20.591V26.4772H24V28.1818ZM24 25.4545H20.591V23.75H24V25.4545ZM24 22.7272H20.591V21.0227H24V22.7272Z" fill="#F1F1F1"/>
        </g>
        <mask id="mask3_1991_2055" style="mask-type:alpha" maskUnits="userSpaceOnUse" x="9" y="5" width="22" height="30">
            <path d="M22.6364 5H11.0455C9.92045 5 9 5.92045 9 7.04545V32.9545C9 34.0795 9.92045 35 11.0455 35H28.7727C29.8977 35 30.8182 34.0795 30.8182 32.9545V13.1818L22.6364 5Z" fill="white"/>
        </mask>
        <g mask="url(#mask3_1991_2055)">
            <path d="M23.2351 12.5835L30.8186 20.1653V13.1818L23.2351 12.5835Z" fill="url(#paint0_linear_1991_2055)"/>
        </g>
        <mask id="mask4_1991_2055" style="mask-type:alpha" maskUnits="userSpaceOnUse" x="9" y="5" width="22" height="30">
            <path d="M22.6364 5H11.0455C9.92045 5 9 5.92045 9 7.04545V32.9545C9 34.0795 9.92045 35 11.0455 35H28.7727C29.8977 35 30.8182 34.0795 30.8182 32.9545V13.1818L22.6364 5Z" fill="white"/>
        </mask>
        <g mask="url(#mask4_1991_2055)">
            <path d="M22.6365 5V11.1364C22.6365 12.2665 23.5518 13.1818 24.6819 13.1818H30.8183L22.6365 5Z" fill="#87CEAC"/>
        </g>
        <mask id="mask5_1991_2055" style="mask-type:alpha" maskUnits="userSpaceOnUse" x="9" y="5" width="22" height="30">
            <path d="M22.6364 5H11.0455C9.92045 5 9 5.92045 9 7.04545V32.9545C9 34.0795 9.92045 35 11.0455 35H28.7727C29.8977 35 30.8182 34.0795 30.8182 32.9545V13.1818L22.6364 5Z" fill="white"/>
        </mask>
        <g mask="url(#mask5_1991_2055)">
            <path d="M11.0455 5C9.92045 5 9 5.92045 9 7.04545V7.21591C9 6.09091 9.92045 5.17045 11.0455 5.17045H22.6364V5H11.0455Z" fill="white" fill-opacity="0.2"/>
        </g>
        <mask id="mask6_1991_2055" style="mask-type:alpha" maskUnits="userSpaceOnUse" x="9" y="5" width="22" height="30">
            <path d="M22.6364 5H11.0455C9.92045 5 9 5.92045 9 7.04545V32.9545C9 34.0795 9.92045 35 11.0455 35H28.7727C29.8977 35 30.8182 34.0795 30.8182 32.9545V13.1818L22.6364 5Z" fill="white"/>
        </mask>
        <g mask="url(#mask6_1991_2055)">
            <path d="M28.773 34.8295H11.0457C9.9207 34.8295 9.00024 33.9091 9.00024 32.7841V32.9545C9.00024 34.0795 9.9207 35 11.0457 35H28.773C29.898 35 30.8184 34.0795 30.8184 32.9545V32.7841C30.8184 33.9091 29.898 34.8295 28.773 34.8295Z" fill="#263238" fill-opacity="0.2"/>
        </g>
        <mask id="mask7_1991_2055" style="mask-type:alpha" maskUnits="userSpaceOnUse" x="9" y="5" width="22" height="30">
            <path d="M22.6364 5H11.0455C9.92045 5 9 5.92045 9 7.04545V32.9545C9 34.0795 9.92045 35 11.0455 35H28.7727C29.8977 35 30.8182 34.0795 30.8182 32.9545V13.1818L22.6364 5Z" fill="white"/>
        </mask>
        <g mask="url(#mask7_1991_2055)">
            <path d="M24.6819 13.1818C23.5518 13.1818 22.6365 12.2665 22.6365 11.1364V11.3068C22.6365 12.4369 23.5518 13.3523 24.6819 13.3523H30.8183V13.1818H24.6819Z" fill="#263238" fill-opacity="0.1"/>
        </g>
        <path d="M22.6364 5H11.0455C9.92045 5 9 5.92045 9 7.04545V32.9545C9 34.0795 9.92045 35 11.0455 35H28.7727C29.8977 35 30.8182 34.0795 30.8182 32.9545V13.1818L22.6364 5Z" fill="url(#paint1_radial_1991_2055)"/>
    </g>
    <defs>
        <linearGradient id="paint0_linear_1991_2055" x1="27.0273" y1="13.2345" x2="27.0273" y2="20.1664" gradientUnits="userSpaceOnUse">
            <stop stop-color="#263238" stop-opacity="0.2"/>
            <stop offset="1" stop-color="#263238" stop-opacity="0.02"/>
        </linearGradient>
        <radialGradient id="paint1_radial_1991_2055" cx="0" cy="0" r="1" gradientUnits="userSpaceOnUse" gradientTransform="translate(9.69121 5.59631) scale(35.1815 35.1815)">
            <stop stop-color="white" stop-opacity="0.1"/>
            <stop offset="1" stop-color="white" stop-opacity="0"/>
        </radialGradient>
    </defs>
</svg>
