<svg width="40" height="40" viewBox="0 0 40 40" fill="none" xmlns="http://www.w3.org/2000/svg">
    <mask id="mask0_1991_2096" style="mask-type:alpha" maskUnits="userSpaceOnUse" x="0" y="0" width="40" height="40">
        <rect width="40" height="40" fill="#D9D9D9"/>
    </mask>
    <g mask="url(#mask0_1991_2096)">
        <path d="M8.5 34.5V5.5H26.2942L31.0007 10.2065V34.5H8.5Z" fill="white" stroke="#F95738"/>
        <path d="M27.5101 19.8358C27.1497 19.1933 25.9041 18.9915 25.3327 18.9006C24.8823 18.829 24.4224 18.8076 23.9669 18.808C23.6092 18.8056 23.2567 18.8233 22.9088 18.843C22.7806 18.8517 22.6536 18.8627 22.5268 18.8737C22.3968 18.7391 22.2711 18.6001 22.1495 18.4579C21.3757 17.542 20.751 16.5032 20.2419 15.4238C20.377 14.9022 20.4852 14.3579 20.5505 13.7926C20.6697 12.7609 20.7107 11.5851 20.3241 10.6014C20.1906 10.2619 19.8347 9.84862 19.4241 10.0544C18.952 10.2911 18.8192 10.9617 18.7807 11.437C18.7497 11.8213 18.7714 12.2065 18.8359 12.5843C18.9016 12.9646 19.0074 13.3258 19.1226 13.6864C19.23 14.0171 19.3485 14.3452 19.4776 14.6703C19.3957 14.9262 19.3087 15.1776 19.2174 15.4226C19.0044 15.981 18.7742 16.5114 18.5527 17.0217C18.436 17.2747 18.3217 17.5224 18.2099 17.7645C17.856 18.5417 17.4719 19.3047 17.0408 20.0423C16.0352 20.397 15.1328 20.8083 14.3833 21.2915C13.9813 21.5513 13.6262 21.8334 13.3304 22.1428C13.0512 22.4349 12.7674 22.8139 12.7426 23.2336C12.7286 23.4705 12.8224 23.7003 13.0165 23.8408C13.2833 24.0402 13.637 24.027 13.9466 23.962C14.9608 23.7493 15.7396 22.8775 16.4029 22.1427C16.8597 21.6366 17.3797 20.9939 17.9236 20.2166C17.9248 20.2149 17.926 20.2131 17.9273 20.2113C18.8602 19.9221 19.8755 19.6779 20.953 19.4984C21.4453 19.4167 21.9506 19.35 22.466 19.3031C22.8285 19.6425 23.2201 19.9517 23.6474 20.2098C23.9801 20.4145 24.3341 20.5874 24.7046 20.7163C25.0792 20.8387 25.4561 20.9387 25.8452 21.0019C26.0417 21.03 26.2427 21.0428 26.448 21.035C26.9063 21.0177 27.564 20.842 27.6071 20.286C27.6204 20.1158 27.5837 19.9666 27.5101 19.8358ZM16.5398 20.856C16.3252 21.1884 16.1182 21.4874 15.9232 21.7505C15.4455 22.4004 14.9 23.1723 14.1102 23.461C13.9602 23.5158 13.7627 23.5724 13.5545 23.5601C13.3691 23.5492 13.1863 23.4674 13.1947 23.2568C13.1988 23.1466 13.2527 23.006 13.3355 22.8679C13.426 22.7164 13.5381 22.5775 13.6595 22.4497C13.9197 22.1764 14.2486 21.9115 14.6269 21.6662C15.2073 21.2897 15.9001 20.9508 16.6724 20.6485C16.628 20.7187 16.5836 20.7886 16.5398 20.856ZM19.2334 12.5186C19.1738 12.1708 19.1648 11.8183 19.2014 11.4793C19.2196 11.3098 19.2542 11.1444 19.3041 10.9893C19.3465 10.8577 19.4379 10.5365 19.5838 10.4953C19.8242 10.4272 19.8981 10.9434 19.9253 11.0894C20.0803 11.9202 19.9437 12.8441 19.7578 13.659C19.7282 13.7887 19.6953 13.9162 19.6615 14.0432C19.604 13.8848 19.549 13.7259 19.4985 13.5662C19.3896 13.2174 19.2901 12.8646 19.2334 12.5186ZM20.8841 19.0769C19.9807 19.2233 19.1214 19.4152 18.3136 19.6417C18.4108 19.6144 18.8553 18.7721 18.9545 18.5973C19.4216 17.7745 19.8037 16.911 20.0783 16.0051C20.5632 16.964 21.1516 17.8814 21.8745 18.6979C21.9411 18.772 22.0088 18.8452 22.0777 18.9176C21.6726 18.9612 21.2739 19.0143 20.8841 19.0769ZM26.9936 20.234C26.9606 20.4126 26.5791 20.5147 26.4011 20.5428C25.8751 20.6255 25.3186 20.5593 24.8152 20.3902C24.4697 20.2742 24.1366 20.1163 23.8201 19.9263C23.5054 19.7363 23.211 19.5126 22.9358 19.266C23.2751 19.2457 23.6186 19.2323 23.9637 19.2388C24.3089 19.2423 24.6567 19.2597 25.0002 19.3045C25.6445 19.3764 26.3664 19.5975 26.8735 20.0156C26.9733 20.098 27.0052 20.1708 26.9936 20.234Z" fill="#F95738"/>
        <path d="M27.275 7.49974H8V5H26.5013L27.275 7.49974Z" fill="#F95738"/>
        <path d="M17.3012 28.8616C17.3012 29.3921 17.1449 29.8017 16.832 30.0907C16.5192 30.3797 16.0749 30.5242 15.499 30.5242H15.1385V32.0991H13.856V27.3517H15.4991C16.0987 27.3517 16.549 27.4827 16.8499 27.7446C17.1508 28.0065 17.3012 28.3789 17.3012 28.8616ZM15.1386 29.4786H15.3724C15.5651 29.4786 15.7183 29.4246 15.832 29.3162C15.9456 29.208 16.0024 29.0585 16.0024 28.8681C16.0024 28.5477 15.8249 28.3875 15.4699 28.3875H15.1386V29.4786Z" fill="#A4A9AD"/>
        <path d="M22.088 29.6247C22.088 30.417 21.8698 31.0275 21.4336 31.4562C20.9975 31.8848 20.3842 32.0991 19.5941 32.0991H18.0581V27.3517H19.7012C20.4632 27.3517 21.0515 27.5465 21.4661 27.9362C21.8806 28.3258 22.088 28.8888 22.088 29.6247ZM20.7566 29.6702C20.7566 29.2351 20.6705 28.9126 20.4985 28.7025C20.3264 28.4926 20.065 28.3876 19.7142 28.3876H19.3409V31.047H19.6266C20.0164 31.047 20.3021 30.9339 20.4839 30.7076C20.6657 30.4815 20.7566 30.1357 20.7566 29.6702Z" fill="#A4A9AD"/>
        <path d="M24.2021 32.0991H22.939V27.3517H25.7446V28.381H24.2021V29.287H25.6244V30.3164H24.2021V32.0991Z" fill="#A4A9AD"/>
        <path d="M26.5012 9.99937H31.5006L26.5012 5V9.99937Z" fill="#D1D3D3"/>
    </g>
</svg>
