<?xml version="1.0" encoding="utf-8"?>
<!-- Generator: Adobe Illustrator 27.4.0, SVG Export Plug-In . SVG Version: 6.00 Build 0)  -->
<svg version="1.1" id="Layer_1" xmlns="http://www.w3.org/2000/svg" xmlns:xlink="http://www.w3.org/1999/xlink" x="0px" y="0px"
	 viewBox="0 0 107.9 23.6" style="enable-background:new 0 0 107.9 23.6;" xml:space="preserve">
<style type="text/css">
	.st0{fill:#46507B;}
</style>
<g>
	<path class="st0" d="M12,23.5c-7.2,0-11.9-4.6-11.9-11.7c0-7.3,4.4-11.6,11.8-11.7c5.9-0.1,8.7,1.2,8.7,1.2v5.7h-3.9
		c0,0,0.5-2.9-4-2.9c-4.3,0-6.6,1.6-6.6,7.8c0,5.7,3.6,7.3,8.2,7.3c0.7,0,1.5-0.1,2-0.3v-4.3h-3.8v-3.4l8.8,0.1l0,10.3
		C21.3,21.5,17.4,23.5,12,23.5z"/>
	<path class="st0" d="M24.8,20.1h1.8l0.3-0.3v-16l-0.3-0.3h-2.1V0.7h10.6c7.9,0,12.3,4.1,12.3,11.1c0,7-4.5,11.1-12.3,11.1H24.8
		V20.1z M34.7,19.6c5.1,0,6.8-2.5,6.8-7.8c0-5.4-1.7-7.8-6.8-7.8h-2.2v15.3l0.3,0.3H34.7z"/>
	<path class="st0" d="M64.2,22.9v-2.8H66l0.3-0.3v-6.3h-8.7v6.3l0.3,0.3h2.1v2.8H49.8v-2.8h1.8l0.3-0.3v-16l-0.3-0.3h-2.1V0.7h10.1
		v2.8h-1.8l-0.3,0.3V10h8.7V3.8L66,3.5h-2.1V0.7H74v2.8h-1.8L72,3.8v16l0.3,0.3h2.1v2.8H64.2z"/>
	<path class="st0" d="M107.8,22.9H98v-2.8h1.8l0.3-0.3V6.4h-0.3l-5.3,15.2h-4.7L84.5,6.4h-0.3v13.3l0.3,0.3h2v2.8H78v-2.8h1.8
		l0.3-0.3v-16l-0.3-0.3h-2.1V0.7h9.9l5,14.4h0.3l5-14.4h9.6v2.8h-1.8l-0.3,0.3v16l0.3,0.3h2.1V22.9z"/>
</g>
</svg>
