<?xml version="1.0" encoding="utf-8"?>
<!-- Generator: Adobe Illustrator 27.4.0, SVG Export Plug-In . SVG Version: 6.00 Build 0)  -->
<svg version="1.1" id="Layer_1" xmlns="http://www.w3.org/2000/svg" xmlns:xlink="http://www.w3.org/1999/xlink" x="0px" y="0px"
	 viewBox="0 0 147.6 28.4" style="enable-background:new 0 0 147.6 28.4;" xml:space="preserve">
<style type="text/css">
	.st0{fill:#46507B;}
</style>
<g>
	<path class="st0" d="M5.7,11.1c-3.4,0-5.6-2.2-5.6-5.5c0-3.4,2.1-5.5,5.5-5.5c2.8,0,4.1,0.6,4.1,0.6v2.7H7.9c0,0,0.2-1.4-1.9-1.4
		c-2,0-3.1,0.8-3.1,3.7C2.9,8.2,4.6,9,6.7,9c0.3,0,0.7,0,0.9-0.1v-2H5.9V5.2l4.1,0l0,4.9C10,10.1,8.2,11.1,5.7,11.1z"/>
	<path class="st0" d="M90.7,11.1c-3.4,0-5.6-2.2-5.6-5.5c0-3.4,2.1-5.5,5.5-5.5c2.8,0,4.1,0.6,4.1,0.6v2.7h-1.9c0,0,0.2-1.4-1.9-1.4
		c-2,0-3.1,0.8-3.1,3.7c0,2.7,1.7,3.4,3.9,3.4c0.3,0,0.7,0,0.9-0.1v-2H91V5.2l4.1,0l0,4.9C95.1,10.1,93.3,11.1,90.7,11.1z"/>
	<path class="st0" d="M20.1,10.8h-8.6V9.4h0.8l0.1-0.1V1.8l-0.1-0.1h-1V0.3h4.7v1.3h-0.8l-0.1,0.1v7.4H18L18.3,8h1.8V10.8z"/>
	<path class="st0" d="M63.1,10.8h-8.6V9.4h0.8l0.1-0.1V1.8l-0.1-0.1h-1V0.3h4.7v1.3h-0.8l-0.1,0.1v7.4h2.8L61.3,8h1.8V10.8z"/>
	<path class="st0" d="M44,28.2h-8.6v-1.3h0.8l0.1-0.1v-7.5l-0.1-0.1h-1v-1.3H40v1.3h-0.8L39,19.2v7.4h2.8l0.3-1.1H44V28.2z"/>
	<path class="st0" d="M133.1,10.8h-8.6V9.4h0.8l0.1-0.1V1.8l-0.1-0.1h-1V0.3h4.7v1.3h-0.8l-0.1,0.1v7.4h2.8l0.3-1.1h1.8V10.8z"/>
	<path class="st0" d="M25.8,10.9c-3.3,0-5.3-2.1-5.3-5.4s1.9-5.4,5.3-5.4c3.3,0,5.2,2.1,5.2,5.4C31.1,8.9,29.2,10.9,25.8,10.9z
		 M25.8,1.9c-1.6,0-2.5,0.8-2.5,3.6c0,2.9,0.8,3.6,2.5,3.6c1.6,0,2.4-0.8,2.4-3.6C28.3,2.7,27.4,1.9,25.8,1.9z"/>
	<path class="st0" d="M32,9.4h0.8L33,9.3V1.8l-0.1-0.1h-1V0.3h5.3C40,0.3,41,1.4,41,3.1c0,1.1-0.6,1.9-1.6,2.2v0.1
		c1.1,0.3,1.9,1,1.9,2.4c0,1.8-1.3,2.9-4.1,2.9H32V9.4z M36.9,4.8c1.2,0,1.5-0.5,1.5-1.4c0-1-0.4-1.6-1.5-1.6h-1.3v3H36.9z
		 M36.8,9.3c1.4,0,1.8-0.5,1.8-1.6c0-1.1-0.4-1.5-1.8-1.5h-1.3v3l0.2,0.1H36.8z"/>
	<path class="st0" d="M52.9,9.4l-3.8-9.1h-4.2l-0.4,1.4h1.3l-3.2,7.7l-0.8,0v1.3l4.2,0V9.4h-1.1l-0.1-0.1l0.7-1.7h3.9l0.7,1.7
		l-0.1,0.1h-1v1.3h4.6V9.4H52.9z M46,6.1l1.3-3.3h0.1l1.3,3.3H46z"/>
	<path class="st0" d="M33.7,26.9l-3.8-9.1h-4.2l-0.4,1.4h1.3l-3.2,7.7l-0.8,0v1.3l4.2,0v-1.3h-1.1l-0.1-0.1l0.7-1.7h3.9l0.7,1.7
		l-0.1,0.1h-1v1.3h4.6v-1.3H33.7z M26.8,23.5l1.3-3.3h0.1l1.3,3.3H26.8z"/>
	<path class="st0" d="M122.9,9.4l-3.8-9.1h-4.2l-0.4,1.4h1.3l-3.2,7.7l-0.8,0v1.3l4.2,0V9.4h-1.1l-0.1-0.1l0.7-1.7h3.9l0.7,1.7
		l-0.1,0.1h-1v1.3h4.6V9.4H122.9z M116,6.1l1.3-3.3h0.1l1.3,3.3H116z"/>
	<path class="st0" d="M67.9,9.4h0.8l0.1-0.1V1.8l-0.1-0.1h-1V0.3h5c3.7,0,5.8,1.9,5.8,5.2c0,3.3-2.1,5.2-5.8,5.2h-4.9V9.4z
		 M72.6,9.2c2.4,0,3.2-1.2,3.2-3.7c0-2.5-0.8-3.7-3.2-3.7h-1v7.2l0.2,0.2H72.6z"/>
	<path class="st0" d="M79.5,10.8V9.4h0.8l0.1-0.1V1.8l-0.1-0.1h-1V0.3h4.7v1.3h-0.8l-0.1,0.1v7.5l0.1,0.1h1v1.3H79.5z"/>
	<path class="st0" d="M97,10.8V9.4h0.8L98,9.3V1.8l-0.1-0.1h-1V0.3h4.7v1.3h-0.8l-0.1,0.1v7.5l0.1,0.1h1v1.3H97z"/>
	<path class="st0" d="M112.6,3.1h-1.8l-0.2-1.2H109v7.4l0.1,0.1h1v1.3h-4.8V9.4h0.8l0.1-0.1V1.9h-1.6l-0.2,1.2h-1.8V0.3h9.9V3.1z"/>
	<path class="st0" d="M7.1,28.2v-1.3H8l0.1-0.1v-3H4v3l0.1,0.1h1v1.3H0.4v-1.3h0.8l0.1-0.1v-7.5l-0.1-0.1h-1v-1.3H5v1.3H4.1L4,19.2
		v2.9h4.1v-2.9L8,19.1H7v-1.3h4.8v1.3h-0.8l-0.1,0.1v7.5l0.1,0.1h1v1.3H7.1z"/>
	<path class="st0" d="M21.5,20.3h-1.8l-0.3-1h-2.4v2.8h2.9v1.6h-2.9v2.8h2.6l0.3-1h1.8v2.6h-8.4v-1.3h0.8l0.1-0.1v-7.5l-0.1-0.1h-1
		v-1.3h8.3V20.3z"/>
	<path class="st0" d="M52.5,20.5h-1.8l-0.2-1.2h-1.6v7.4l0.1,0.1h1v1.3h-4.8v-1.3h0.8l0.1-0.1v-7.4h-1.6l-0.2,1.2h-1.8v-2.8h9.9
		V20.5z"/>
	<path class="st0" d="M60.4,28.2v-1.3h0.8l0.1-0.1v-3h-4.1v3l0.1,0.1h1v1.3h-4.7v-1.3h0.8l0.1-0.1v-7.5l-0.1-0.1h-1v-1.3h4.7v1.3
		h-0.8l-0.1,0.1v2.9h4.1v-2.9l-0.1-0.1h-1v-1.3h4.8v1.3h-0.8l-0.1,0.1v7.5l0.1,0.1h1v1.3H60.4z"/>
	<path class="st0" d="M84.5,28.2h-4.6v-1.3h0.8l0.1-0.1v-6.3h-0.1l-2.5,7.2H76l-2.5-7.2h-0.1v6.3l0.1,0.1h1v1.3h-4v-1.3h0.8l0.1-0.1
		v-7.5l-0.1-0.1h-1v-1.3H75l2.3,6.8h0.2l2.4-6.8h4.5v1.3h-0.8l-0.1,0.1v7.5l0.1,0.1h1V28.2z"/>
	<path class="st0" d="M90.7,28.4c-3.3,0-5.3-2.1-5.3-5.4c0-3.3,1.9-5.4,5.3-5.4c3.3,0,5.3,2.1,5.3,5.4C95.9,26.3,94,28.4,90.7,28.4z
		 M90.7,19.3c-1.6,0-2.5,0.8-2.5,3.6c0,2.9,0.8,3.6,2.5,3.6c1.6,0,2.4-0.8,2.4-3.6C93.1,20.1,92.3,19.3,90.7,19.3z"/>
	<path class="st0" d="M108.1,19.1h-0.8l-0.1,0.1v9h-2.3l-4.7-7.4h-0.1v5.9l0.1,0.1h1v1.3H97v-1.3h0.8l0.1-0.1v-7.5l-0.1-0.1h-1v-1.3
		h3.9l4.2,6.6h0.1v-5.2l-0.1-0.1h-1v-1.3h4V19.1z"/>
	<path class="st0" d="M109.6,28.2v-1.3h0.8l0.1-0.1v-7.5l-0.1-0.1h-1v-1.3h4.7v1.3h-0.8l-0.1,0.1v7.5l0.1,0.1h1v1.3H109.6z"/>
	<path class="st0" d="M125.4,20.5h-1.8l-0.2-1.2h-1.6v7.4l0.1,0.1h1v1.3h-4.8v-1.3h0.8l0.1-0.1v-7.4h-1.6l-0.2,1.2h-1.8v-2.8h9.9
		V20.5z"/>
	<path class="st0" d="M131.1,28.4c-3.3,0-5.3-2.1-5.3-5.4c0-3.3,1.9-5.4,5.3-5.4c3.3,0,5.3,2.1,5.3,5.4
		C136.4,26.3,134.5,28.4,131.1,28.4z M131.1,19.3c-1.6,0-2.5,0.8-2.5,3.6c0,2.9,0.8,3.6,2.5,3.6c1.6,0,2.4-0.8,2.4-3.6
		C133.6,20.1,132.7,19.3,131.1,19.3z"/>
	<path class="st0" d="M145,28.2c-0.5-0.1-1-0.7-1.8-2.1l-1.1-2h-1.1v2.6l0.1,0.1h0.9v1.3h-4.6v-1.3h0.8l0.1-0.1v-7.5l-0.1-0.1h-1
		v-1.3h5.4c2.9,0,4,1.3,4,3.1c0,1.3-0.8,2.3-2,2.7l1,1.6c0.8,1.3,1.2,1.7,1.9,1.7v1.3H145z M142.2,22.8c1.3,0,1.7-0.6,1.7-1.7
		c0-1.1-0.4-1.7-1.7-1.7h-1.3v3.5H142.2z"/>
</g>
</svg>
