<svg width="20" height="20" viewBox="0 0 20 20" fill="none" xmlns="http://www.w3.org/2000/svg">
    <mask id="mask0_1991_2255" style="mask-type:alpha" maskUnits="userSpaceOnUse" x="0" y="0" width="20" height="20">
        <rect width="20" height="20" fill="#D9D9D9"/>
    </mask>
    <g mask="url(#mask0_1991_2255)">
        <path d="M7.5415 17.6875L6.146 15.3335L3.4585 14.771L3.729 12.0415L1.9585 10L3.729 7.9585L3.4585 5.25L6.146 4.6665L7.5415 2.3125L10 3.375L12.4585 2.3125L13.875 4.6665L16.5625 5.25L16.271 7.9585L18.0415 10L16.271 12.0415L16.5625 14.771L13.875 15.3335L12.4585 17.6875L10 16.625L7.5415 17.6875ZM9.125 12.3125L13.25 8.2085L12.729 7.7085L9.125 11.3125L7.271 9.4375L6.75 9.9585L9.125 12.3125Z" fill="#415BA3"/>
    </g>
</svg>
