<svg width="19" height="18" viewBox="0 0 19 18" fill="none" xmlns="http://www.w3.org/2000/svg">
    <path d="M9.26562 17.875V16.9894H16.9481V8.55187C16.9481 7.5452 16.7483 6.59479 16.3488 5.70062C15.9496 4.80645 15.4115 4.02083 14.7344 3.34375C14.0573 2.66666 13.2673 2.12854 12.3644 1.72937C11.4619 1.32979 10.5071 1.13 9.5 1.13C8.49292 1.13 7.53813 1.32979 6.63562 1.72937C5.73271 2.12854 4.94271 2.66666 4.26562 3.34375C3.58854 4.02083 3.05042 4.80645 2.65125 5.70062C2.25167 6.59479 2.05188 7.5452 2.05188 8.55187V14.7762H0.125V9.64562H1.16687L1.1925 8.3175C1.21 7.18916 1.44875 6.13458 1.90875 5.15375C2.36875 4.17291 2.97646 3.31791 3.73187 2.58875C4.48688 1.85958 5.35917 1.28666 6.34875 0.869995C7.33833 0.453328 8.38875 0.244995 9.5 0.244995C10.6112 0.244995 11.6658 0.448954 12.6637 0.85687C13.6621 1.26479 14.5346 1.83333 15.2812 2.5625C16.0279 3.29166 16.6269 4.14666 17.0781 5.1275C17.5294 6.10833 17.7725 7.17166 17.8075 8.3175L17.8331 9.64562H18.875V14.7762H17.8331V17.875H9.26562ZM6.76562 10.6612C6.57479 10.6612 6.40979 10.5875 6.27063 10.44C6.13188 10.2925 6.0625 10.1233 6.0625 9.9325C6.0625 9.74125 6.13188 9.57625 6.27063 9.4375C6.40979 9.29875 6.57479 9.22937 6.76562 9.22937C6.97396 9.22937 7.1475 9.29875 7.28625 9.4375C7.42542 9.57625 7.495 9.74125 7.495 9.9325C7.495 10.1233 7.42542 10.2925 7.28625 10.44C7.1475 10.5875 6.97396 10.6612 6.76562 10.6612ZM12.2344 10.6612C12.0435 10.6612 11.8742 10.5875 11.7262 10.44C11.5788 10.2925 11.505 10.1233 11.505 9.9325C11.505 9.74125 11.5788 9.57625 11.7262 9.4375C11.8742 9.29875 12.0435 9.22937 12.2344 9.22937C12.4252 9.22937 12.5902 9.29875 12.7294 9.4375C12.8681 9.57625 12.9375 9.74125 12.9375 9.9325C12.9375 10.1233 12.8681 10.2925 12.7294 10.44C12.5902 10.5875 12.4252 10.6612 12.2344 10.6612ZM4.005 8.995C3.93583 8.09208 4.0575 7.26729 4.37 6.52062C4.6825 5.77437 5.10333 5.1452 5.6325 4.63312C6.16208 4.12062 6.77417 3.72562 7.46875 3.44812C8.16333 3.1702 8.85771 3.03125 9.55188 3.03125C10.941 3.03125 12.1346 3.47395 13.1325 4.35937C14.1308 5.24479 14.7342 6.34729 14.9425 7.66687C13.5017 7.64937 12.2127 7.26291 11.0756 6.5075C9.93854 5.7525 9.06604 4.76729 8.45813 3.55187C8.21521 4.78479 7.69438 5.88291 6.89563 6.84625C6.09729 7.81 5.13375 8.52625 4.005 8.995Z" fill="#0A0A0A"/>
</svg>
