<svg width="28" height="28" viewBox="0 0 28 28" fill="none" xmlns="http://www.w3.org/2000/svg">
    <path d="M26.625 27.583L16.042 17C15.2087 17.722 14.2503 18.2777 13.167 18.667C12.0837 19.0557 10.9863 19.25 9.875 19.25C7.20833 19.25 4.95133 18.3333 3.104 16.5C1.25667 14.6667 0.333 12.4307 0.333 9.79199C0.333 7.12533 1.25667 4.87533 3.104 3.04199C4.95133 1.20866 7.19433 0.291992 9.833 0.291992C12.4723 0.291992 14.7223 1.20866 16.583 3.04199C18.4443 4.87533 19.375 7.11133 19.375 9.74999C19.375 10.9167 19.1667 12.0487 18.75 13.146C18.3333 14.2433 17.764 15.1947 17.042 16L27.667 26.542L26.625 27.583ZM9.875 17.833C12.125 17.833 14.0347 17.0553 15.604 15.5C17.1733 13.9447 17.958 12.028 17.958 9.74999C17.958 7.49999 17.1733 5.59033 15.604 4.02099C14.0347 2.45166 12.125 1.66699 9.875 1.66699C7.597 1.66699 5.67333 2.45166 4.104 4.02099C2.53467 5.59033 1.75 7.49999 1.75 9.74999C1.75 12.028 2.53467 13.9447 4.104 15.5C5.67333 17.0553 7.597 17.833 9.875 17.833Z" fill="#0A0A0A"/>
</svg>
