<svg width="24" height="28" viewBox="0 0 24 28" fill="none" xmlns="http://www.w3.org/2000/svg">
    <path d="M10.458 27.167C7.56934 26.8337 5.15967 25.5697 3.22901 23.375C1.29834 21.1803 0.333008 18.611 0.333008 15.667C0.333008 14.0277 0.680341 12.465 1.37501 10.979C2.06967 9.493 3.02801 8.20833 4.25001 7.125L5.25001 8.125C4.11134 9.04167 3.24334 10.1597 2.64601 11.479C2.04867 12.7983 1.75001 14.1943 1.75001 15.667C1.75001 18.2223 2.57634 20.4513 4.22901 22.354C5.88167 24.2567 7.95801 25.4027 10.458 25.792V27.167ZM13.542 27.25V25.833C16.042 25.361 18.1183 24.1807 19.771 22.292C21.4237 20.4027 22.25 18.1943 22.25 15.667C22.25 12.8057 21.257 10.382 19.271 8.396C17.285 6.41 14.8613 5.417 12 5.417H10.75L13.625 8.292L12.583 9.292L8.00001 4.708L12.583 0.125L13.625 1.125L10.75 4H12C15.25 4 18.007 5.139 20.271 7.417C22.535 9.69433 23.667 12.4443 23.667 15.667C23.667 18.611 22.7017 21.1663 20.771 23.333C18.8403 25.4997 16.4307 26.8053 13.542 27.25Z" fill="#0A0A0A"/>
</svg>
