<svg width="21" height="19" viewBox="0 0 21 19" fill="none" xmlns="http://www.w3.org/2000/svg">
    <path d="M20.9169 0.0831299V9.38C20.344 8.92875 19.7058 8.58167 19.0025 8.33875C18.2996 8.09542 17.5835 7.97375 16.8544 7.97375C16.4202 7.97375 15.9948 8.01292 15.5781 8.09126C15.1615 8.16917 14.7535 8.28625 14.3544 8.4425V6.95813L8.85938 3.07813V0.0831299H20.9169ZM16.0731 4.875H17.5313V3.41688H16.0731V4.875ZM16.8544 18.8331C15.7256 18.8331 14.7663 18.4383 13.9763 17.6488C13.1867 16.8588 12.7919 15.8994 12.7919 14.7706C12.7919 13.6423 13.1867 12.6788 13.9763 11.88C14.7663 11.0817 15.7256 10.6825 16.8544 10.6825C17.9827 10.6825 18.9419 11.0817 19.7319 11.88C20.5219 12.6788 20.9169 13.6423 20.9169 14.7706C20.9169 15.8994 20.5219 16.8588 19.7319 17.6488C18.9419 18.4383 17.9827 18.8331 16.8544 18.8331ZM16.4894 17.8438H17.245V15.1356H19.9269V14.4063H17.245V11.7238H16.4894V14.4063H13.8075V15.1356H16.4894V17.8438ZM0.0831299 16.75V7.97375L6.255 3.57313L12.4269 7.97375V9.58875C11.6806 10.2483 11.0992 11.0252 10.6825 11.9194C10.2658 12.8135 10.0575 13.764 10.0575 14.7706C10.0575 15.1006 10.0879 15.4306 10.1488 15.7606C10.2092 16.0902 10.2915 16.42 10.3956 16.75H8.1825V11.62H4.32813V16.75H0.0831299Z" fill="#0A0A0A"/>
</svg>
