<svg width="19" height="20" viewBox="0 0 19 20" fill="none" xmlns="http://www.w3.org/2000/svg">
    <path d="M16.3231 19.8488C16.219 19.8488 16.1233 19.8315 16.0363 19.7969C15.9496 19.7623 15.8629 19.7102 15.7763 19.6406L10.2031 14.0675V13.1825L12.1044 11.255H12.9894L18.5888 16.8544C18.6579 16.9235 18.7056 17.0058 18.7319 17.1013C18.7577 17.1971 18.7706 17.2971 18.7706 17.4013C18.7706 17.5054 18.7577 17.6008 18.7319 17.6875C18.7056 17.7742 18.6492 17.861 18.5625 17.9481L16.8438 19.6406C16.7742 19.7102 16.696 19.7623 16.6094 19.7969C16.5227 19.8315 16.4273 19.8488 16.3231 19.8488ZM16.3231 18.9375L17.8856 17.375L12.5988 12.0888L11.0363 13.6513L16.3231 18.9375ZM2.65125 19.8488C2.54709 19.8488 2.45146 19.8315 2.36438 19.7969C2.27771 19.7623 2.19959 19.7102 2.13 19.6406L0.38563 17.9219C0.316046 17.8352 0.263963 17.7483 0.22938 17.6613C0.19438 17.5746 0.17688 17.4792 0.17688 17.375C0.17688 17.2708 0.19438 17.1754 0.22938 17.0888C0.263963 17.0017 0.316046 16.9148 0.38563 16.8281L5.85438 11.3594H8.04188L8.875 10.5263L4.37 6.02063H2.88563L0.22938 3.36438L2.33875 1.255L4.995 3.91125V5.39563L9.5 9.90125L12.755 6.64563L10.6456 4.53625L11.8175 3.36438H9.44813L9.10938 3.02625L11.9481 0.1875L12.2863 0.5V2.89563L13.4581 1.72375L17.8075 6.02063C18.0504 6.24646 18.2327 6.51125 18.3544 6.815C18.4756 7.11875 18.5363 7.44438 18.5363 7.79188C18.5363 8.03479 18.5058 8.26479 18.445 8.48188C18.3846 8.69896 18.2935 8.91167 18.1719 9.12L16.0363 6.98438L14.5519 8.46875L13.3544 7.27063L8.64063 11.9844V14.1981L3.19813 19.6406C3.11105 19.7102 3.02417 19.7623 2.9375 19.7969C2.85084 19.8315 2.75542 19.8488 2.65125 19.8488ZM2.65125 18.9375L8.01563 13.5469L6.45313 11.9844L1.08875 17.3488L2.65125 18.9375Z" fill="#0A0A0A"/>
</svg>
